<svg xmlns="http://www.w3.org/2000/svg" viewBox="0 0 120 120" fill="none">
  <!-- Altes Lager: Bronze L-Beschlaege mit Goldnieten. Kanten = duenne Bronzelinie. -->
  <g stroke="#6b4a24" stroke-width="3">
    <line x1="34" y1="6" x2="86" y2="6"/>
    <line x1="34" y1="114" x2="86" y2="114"/>
    <line x1="6" y1="34" x2="6" y2="86"/>
    <line x1="114" y1="34" x2="114" y2="86"/>
  </g>
  <g stroke="#b9762f" stroke-width="4.5" stroke-linecap="round">
    <path d="M6 30 L6 11 Q6 6 11 6 L30 6"/>
    <path d="M90 6 L109 6 Q114 6 114 11 L114 30"/>
    <path d="M114 90 L114 109 Q114 114 109 114 L90 114"/>
    <path d="M30 114 L11 114 Q6 114 6 109 L6 90"/>
  </g>
  <g fill="#e0a93e">
    <circle cx="12" cy="12" r="3.4"/>
    <circle cx="108" cy="12" r="3.4"/>
    <circle cx="108" cy="108" r="3.4"/>
    <circle cx="12" cy="108" r="3.4"/>
  </g>
</svg>
